# xmcd
#
# Track frame offsets:
#	150
#	15322
#	36107
#	51684
#	67207
#	79591
#	97212
#	110949
#	127110
#	144432
#
# Disc length: 2127 seconds
#
# Revision: 0
# Processed by: cddbd v1.5.2PL0 Copyright (c) Steve Scherf et al.
# Submitted via: EZCDAudioConverter 3.1.0.1
#
DISCID=97084d0a
DTITLE=AJ Guel - Real No One
DYEAR=2015
DGENRE=Texas County
TTITLE0=Real no one
TTITLE1=Run away tonight
TTITLE2=Texan by the grace of God
TTITLE3=Before that cowboy fell in love
TTITLE4=Rodeo
TTITLE5=Time machine
TTITLE6=Make me wanna dance
TTITLE7=Dreamin
TTITLE8=Jaded
TTITLE9=Quicksand
EXTD=
EXTT0=
EXTT1=
EXTT2=
EXTT3=
EXTT4=
EXTT5=
EXTT6=
EXTT7=
EXTT8=
EXTT9=
PLAYORDER=
